<?xml version="1.0" encoding="UTF-8"?>
<svg version="1.1" xmlns="http://www.w3.org/2000/svg" width="500" height="500">
<path d="M0 0 C165 0 330 0 500 0 C500 165 500 330 500 500 C335 500 170 500 0 500 C0 335 0 170 0 0 Z " fill="#000000" transform="translate(0,0)"/>
<path d="M0 0 C17.49 0 34.98 0 53 0 C52.08674232 4.56628842 50.68014452 8.16288697 48.68359375 12.29296875 C48.35102066 12.99288437 48.01844757 13.69279999 47.67579651 14.41392517 C46.966642 15.90526771 46.25506295 17.39545939 45.54125977 18.88458252 C43.70246372 22.72110174 41.88110294 26.56588028 40.05859375 30.41015625 C39.70284271 31.15948425 39.34709167 31.90881226 38.9805603 32.68084717 C35.17015577 40.72129697 31.5356977 48.83532966 28 57 C27.34 57 26.68 57 26 57 C23.7226029 52.20396926 21.44820392 47.40653106 19.17626953 42.60791016 C18.40718388 40.98449774 17.6373578 39.36143584 16.86669922 37.73876953 C12.65231897 28.86378053 8.49580297 19.96807381 4.5 10.9921875 C4.16162109 10.23285919 3.82324219 9.47353088 3.47460938 8.69119263 C2.20368124 5.81741986 0.99429508 2.98288523 0 0 Z " fill="#060606" transform="translate(164,225)"/>
<path d="M0 0 C6 0 6 0 7.84375 1.51953125 C8.3903125 2.27621094 8.936875 3.03289062 9.5 3.8125 C10.17160156 4.71871094 10.84320313 5.62492188 11.53515625 6.55859375 C11.91559082 7.09081543 12.29602539 7.62303711 12.68798828 8.17138672 C14.20672171 10.2881179 15.75623601 12.38046249 17.30859375 14.47265625 C19.66267226 17.64881914 22.00611814 20.83229521 24.33984375 24.0234375 C28.52229307 29.71014021 32.76451547 35.35268729 37 41 C37.33 27.47 37.66 13.94 38 0 C39.65 0 41.3 0 43 0 C43 17.49 43 34.98 43 53 C38 53 38 53 36.3059082 51.56982422 C35.80921631 50.9048291 35.31252441 50.23983398 34.80078125 49.5546875 C34.23625244 48.81412109 33.67172363 48.07355469 33.09008789 47.31054688 C32.50348389 46.50681641 31.91687988 45.70308594 31.3125 44.875 C30.39102173 43.65006836 30.39102173 43.65006836 29.45092773 42.40039062 C27.61461784 39.94718976 25.80319266 37.4776151 24 35 C23.50177734 34.3184082 23.00355469 33.63681641 22.49023438 32.93457031 C19.61487426 28.98755901 16.79613664 25.00366363 14 21 C11.69 17.7 9.38 14.4 7 11 C6.67 24.86 6.34 38.72 6 53 C4.02 53 2.04 53 0 53 C0 35.51 0 18.02 0 0 Z " fill="#F4F4F4" transform="translate(271,227)"/>
<path d="M0 0 C17.49 0 34.98 0 53 0 C52.08674232 4.56628842 50.68014452 8.16288697 48.68359375 12.29296875 C48.35102066 12.99288437 48.01844757 13.69279999 47.67579651 14.41392517 C46.966642 15.90526771 46.25506295 17.39545939 45.54125977 18.88458252 C43.70246372 22.72110174 41.88110294 26.56588028 40.05859375 30.41015625 C39.70284271 31.15948425 39.34709167 31.90881226 38.9805603 32.68084717 C35.17015577 40.72129697 31.5356977 48.83532966 28 57 C27.34 57 26.68 57 26 57 C23.7226029 52.20396926 21.44820392 47.40653106 19.17626953 42.60791016 C18.40718388 40.98449774 17.6373578 39.36143584 16.86669922 37.73876953 C12.65231897 28.86378053 8.49580297 19.96807381 4.5 10.9921875 C4.16162109 10.23285919 3.82324219 9.47353088 3.47460938 8.69119263 C2.20368124 5.81741986 0.99429508 2.98288523 0 0 Z M5 3 C6.63717601 7.96910776 6.63717601 7.96910776 8.64819336 12.69116211 C8.95869125 13.34882065 9.26918915 14.00647919 9.58909607 14.68406677 C9.9193428 15.37484818 10.24958954 16.06562958 10.58984375 16.77734375 C10.93503555 17.50691788 11.28022736 18.236492 11.63587952 18.98817444 C12.73320965 21.30615442 13.83508997 23.62193225 14.9375 25.9375 C16.03559089 28.24984227 17.13268012 30.56265132 18.22840881 32.87611389 C18.90805144 34.31046899 19.58914346 35.74413857 20.2719574 37.17698669 C22.28228088 41.41241802 24.17840261 45.67989106 26 50 C29.24455762 47.31342755 30.69433671 43.80671966 32.3984375 40.05859375 C32.71527496 39.37628189 33.03211243 38.69397003 33.35855103 37.99098206 C34.37025416 35.80930188 35.37295345 33.62362994 36.375 31.4375 C37.36915395 29.28261329 38.3651918 27.1286099 39.36212158 24.9750061 C40.00743308 23.58082183 40.6516125 22.18611296 41.2946167 20.79086304 C43.4774589 16.07011228 45.76570235 11.41546865 48.17431641 6.80493164 C49.13866604 5.0276824 49.13866604 5.0276824 49 3 C34.48 3 19.96 3 5 3 Z " fill="#E8E8E8" transform="translate(164,225)"/>
<path d="M0 0 C1.32 0.33 2.64 0.66 4 1 C-2.46187203 11.60201618 -9.27039405 21.9552134 -16.18395996 32.26568604 C-22.3055536 41.39987996 -28.27679233 50.60991305 -34 60 C-35.32 59.67 -36.64 59.34 -38 59 C-31.53812797 48.39798382 -24.72960595 38.0447866 -17.81604004 27.73431396 C-11.6944464 18.60012004 -5.72320767 9.39008695 0 0 Z " fill="#E9E9E9" transform="translate(256,222)"/>
<path d="M0 0 C3.98416091 0.54365542 5.78363228 2.43465185 8.546875 5.25390625 C9.39121094 6.10791016 10.23554688 6.96191406 11.10546875 7.84179688 C11.97816406 8.73962891 12.85085938 9.63746094 13.75 10.5625 C14.63816406 11.46419922 15.52632813 12.36589844 16.44140625 13.29492188 C18.63448315 15.52337098 20.82026044 17.75851593 23 20 C21.51346494 23.46629835 19.54277649 25.69022036 16.8671875 28.328125 C16.06152344 29.12734375 15.25585938 29.9265625 14.42578125 30.75 C13.58402344 31.575 12.74226563 32.4 11.875 33.25 C11.02550781 34.09046875 10.17601562 34.9309375 9.30078125 35.796875 C7.20495077 37.86915683 5.10459287 39.93662393 3 42 C2.01 41.67 1.02 41.34 0 41 C1.38885607 37.83391209 2.99027745 35.81936194 5.51171875 33.46875 C6.52395508 32.50001953 6.52395508 32.50001953 7.55664062 31.51171875 C8.98342166 30.16471191 10.41578493 28.8235947 11.85351562 27.48828125 C12.52447266 26.84246094 13.19542969 26.19664062 13.88671875 25.53125 C14.50764404 24.94923828 15.12856934 24.36722656 15.76831055 23.76757812 C17.20358918 22.08753028 17.20358918 22.08753028 16.91943359 20.01806641 C15.78087843 17.51904967 14.38612543 16.07863878 12.40234375 14.1796875 C11.32436523 13.12974609 11.32436523 13.12974609 10.22460938 12.05859375 C9.46986328 11.33800781 8.71511719 10.61742187 7.9375 9.875 C6.44223486 8.43944384 4.95111056 6.99955784 3.46484375 5.5546875 C2.800896 4.92030762 2.13694824 4.28592773 1.45288086 3.63232422 C0 2 0 2 0 0 Z " fill="#E5E5E5" transform="translate(325,233)"/>
<path d="M0 0 C0.99 0.33 1.98 0.66 3 1 C-2.55035203 7.78376359 -8.76442027 13.85522968 -15 20 C-13.5735422 23.2586636 -11.83295838 25.4024854 -9.3046875 27.890625 C-8.58925781 28.59960938 -7.87382812 29.30859375 -7.13671875 30.0390625 C-6.39035156 30.76867187 -5.64398438 31.49828125 -4.875 32.25 C-4.12089844 32.99507813 -3.36679688 33.74015625 -2.58984375 34.5078125 C-0.73099228 36.3431342 1.13237005 38.1736191 3 40 C2.67 40.66 2.34 41.32 2 42 C-1.46629835 40.51346494 -3.69022036 38.54277649 -6.328125 35.8671875 C-7.12734375 35.06152344 -7.9265625 34.25585938 -8.75 33.42578125 C-9.9875 32.16314453 -9.9875 32.16314453 -11.25 30.875 C-12.09046875 30.02550781 -12.9309375 29.17601562 -13.796875 28.30078125 C-15.86915683 26.20495077 -17.93662393 24.10459287 -20 22 C-18.51346494 18.53370165 -16.54277649 16.30977964 -13.8671875 13.671875 C-12.65869141 12.47304687 -12.65869141 12.47304687 -11.42578125 11.25 C-10.58402344 10.425 -9.74226562 9.6 -8.875 8.75 C-8.02550781 7.90953125 -7.17601562 7.0690625 -6.30078125 6.203125 C-4.20495077 4.13084317 -2.10459287 2.06337607 0 0 Z " fill="#F5F5F5" transform="translate(148,233)"/>
<path d="M0 0 C0.33 0.99 0.66 1.98 1 3 C0.01 4.485 0.01 4.485 -1 6 C-2.32 5.67 -3.64 5.34 -5 5 C-3.35 3.35 -1.7 1.7 0 0 Z " fill="#EFEFEF" transform="translate(223,276)"/>
</svg>
