<?xml version="1.0" encoding="UTF-8"?>
<svg version="1.1" xmlns="http://www.w3.org/2000/svg" width="244" height="106">
<path d="M0 0 C80.52 0 161.04 0 244 0 C244 34.98 244 69.96 244 106 C163.48 106 82.96 106 0 106 C0 71.02 0 36.04 0 0 Z " fill="#010101" transform="translate(0,0)"/>
<path d="M0 0 C13.86 0 27.72 0 42 0 C40.99382572 4.02469711 39.48864299 7.54891363 37.76171875 11.29296875 C37.2786602 12.3511657 37.2786602 12.3511657 36.7858429 13.43074036 C35.75625308 15.6844694 34.72202342 17.93603196 33.6875 20.1875 C32.66675274 22.41710951 31.64696234 24.64715495 30.62722778 26.87722778 C29.97227195 28.30928406 29.31690368 29.74115179 28.66110229 31.17282104 C26.40544642 36.09991212 24.18467851 41.04094827 22 46 C21.34 46 20.68 46 20 46 C17.7933234 41.32327174 15.5879719 36.64592169 13.38378906 31.96801758 C12.63544558 30.38028537 11.88675481 28.7927168 11.13769531 27.20532227 C9.04225815 22.76439244 6.95216449 18.32105459 4.87426758 13.87188721 C4.11530997 12.24688924 3.35378302 10.62309176 2.59179688 8.99951172 C0 3.3599537 0 3.3599537 0 0 Z " fill="#040404" transform="translate(51,35)"/>
<path d="M0 0 C6 0 6 0 7.76000977 1.36669922 C8.23237061 2.00623535 8.70473145 2.64577148 9.19140625 3.3046875 C9.73748535 4.02495117 10.28356445 4.74521484 10.84619141 5.48730469 C11.41257324 6.27524414 11.97895508 7.06318359 12.5625 7.875 C13.46234619 9.0801123 13.46234619 9.0801123 14.38037109 10.30957031 C16.27441823 12.85842935 18.13884996 15.4270485 20 18 C21.21950896 19.66446057 22.43954984 21.32853156 23.66015625 22.9921875 C28.23116451 29.25417171 32.69867562 35.54801343 37 42 C37.33 28.47 37.66 14.94 38 1 C39.65 1 41.3 1 43 1 C43 18.16 43 35.32 43 53 C38 53 38 53 36.25390625 51.48046875 C35.41666016 50.34544922 35.41666016 50.34544922 34.5625 49.1875 C33.881875 48.28128906 33.20125 47.37507813 32.5 46.44140625 C31.66654282 45.29436081 30.83322408 44.14721477 30 43 C28.89704107 41.50822088 27.79277773 40.01740566 26.6875 38.52734375 C24.33533384 35.35075939 21.9936273 32.16689937 19.66015625 28.9765625 C15.47770693 23.28985979 11.23548453 17.64731271 7 12 C6.67 25.53 6.34 39.06 6 53 C4.02 53 2.04 53 0 53 C0 35.51 0 18.02 0 0 Z " fill="#F2F2F2" transform="translate(152,33)"/>
<path d="M0 0 C17.49 0 34.98 0 53 0 C52.2699133 3.6504335 51.72733063 5.94036141 50.22167969 9.15673828 C49.85749939 9.94170685 49.49331909 10.72667542 49.11810303 11.53543091 C48.72334778 12.37194183 48.32859253 13.20845276 47.921875 14.0703125 C47.51342346 14.94718719 47.10497192 15.82406189 46.68414307 16.72750854 C45.37785463 19.52908392 44.06413658 22.32709866 42.75 25.125 C41.88099954 26.98413629 41.01250472 28.84350902 40.14453125 30.703125 C38.88778344 33.3953589 37.63063131 36.08739423 36.37121582 38.77838135 C33.53810836 44.83332632 30.73850932 50.9015641 28 57 C25 56 25 56 23.44116211 53.19042969 C22.87581856 51.93904041 22.32203969 50.68238869 21.77734375 49.421875 C21.47531036 48.74683426 21.17327698 48.07179352 20.86209106 47.376297 C19.87770672 45.17163078 18.90771696 42.96093254 17.9375 40.75 C16.93071802 38.48569622 15.92018953 36.22309326 14.90910339 33.96070862 C14.23498477 32.45228488 13.56198139 30.94336225 12.89009094 29.4339447 C9.66792907 22.20994824 6.26929916 15.07553814 2.79467773 7.96972656 C0 2.20356127 0 2.20356127 0 0 Z M6 4 C6.74151467 7.70757335 7.32422477 10.05115629 8.85766602 13.33129883 C9.23798477 14.151772 9.61830353 14.97224518 10.01014709 15.81758118 C10.42058762 16.6885997 10.83102814 17.55961823 11.25390625 18.45703125 C11.67421616 19.35999435 12.09452606 20.26295746 12.52757263 21.19328308 C13.86746609 24.06875926 15.21486823 26.9406436 16.5625 29.8125 C17.47380506 31.76474168 18.38461812 33.7172131 19.29492188 35.66992188 C21.52425173 40.44929239 23.75975216 45.22573818 26 50 C26.66 50 27.32 50 28 50 C28.42821045 49.0527002 28.8564209 48.10540039 29.29760742 47.12939453 C30.90776432 43.56876086 32.52053088 40.00931409 34.1340332 36.45019531 C34.82808983 34.91828446 35.52146614 33.38606517 36.21411133 31.85351562 C37.21771427 29.63327055 38.22339805 27.41398668 39.23046875 25.1953125 C39.71892776 24.11833099 39.71892776 24.11833099 40.21725464 23.01959229 C42.40201708 18.23172189 44.70588559 13.52446861 47.1809082 8.87841797 C48.19985303 6.88321754 48.19985303 6.88321754 48 4 C34.14 4 20.28 4 6 4 Z " fill="#E4E4E4" transform="translate(45,31)"/>
<path d="M0 0 C1.32 0 2.64 0 4 0 C2.56018262 4.02624124 0.61477309 7.29732941 -1.78125 10.83203125 C-2.15105988 11.38118195 -2.52086975 11.93033264 -2.90188599 12.49612427 C-3.6902689 13.6663386 -4.4806141 14.83523296 -5.27276611 16.00289917 C-7.33546867 19.04442882 -9.38290016 22.09618344 -11.4296875 25.1484375 C-11.83109955 25.74661789 -12.2325116 26.34479828 -12.64608765 26.96110535 C-16.13525713 32.17385297 -19.48472309 37.46125696 -22.77294922 42.80200195 C-26.36853535 48.6350718 -30.1546819 54.32869286 -34 60 C-35.32 59.67 -36.64 59.34 -38 59 C-28.82548384 44.52637722 -19.52009464 30.15946743 -9.94189453 15.94995117 C-6.43128765 10.72499925 -3.01068393 5.53015101 0 0 Z " fill="#DFDFDF" transform="translate(137,28)"/>
<path d="M0 0 C17.49 0 34.98 0 53 0 C52 5 52 5 50 7 C49.34 7 48.68 7 48 7 C48 6.01 48 5.02 48 4 C34.14 4 20.28 4 6 4 C6 4.99 6 5.98 6 7 C5.01 7.33 4.02 7.66 3 8 C0 2.25 0 2.25 0 0 Z " fill="#D5D5D5" transform="translate(45,31)"/>
<path d="M0 0 C3.46629835 1.48653506 5.69022036 3.45722351 8.328125 6.1328125 C9.12734375 6.93847656 9.9265625 7.74414062 10.75 8.57421875 C11.575 9.41597656 12.4 10.25773437 13.25 11.125 C14.51070312 12.39923828 14.51070312 12.39923828 15.796875 13.69921875 C17.86915683 15.79504923 19.93662393 17.89540713 22 20 C19.64475039 25.44358506 15.20263267 29.12597679 11.0625 33.25 C10.23814453 34.09046875 9.41378906 34.9309375 8.56445312 35.796875 C7.77103516 36.5909375 6.97761719 37.385 6.16015625 38.203125 C5.43449463 38.93176758 4.70883301 39.66041016 3.96118164 40.41113281 C2 42 2 42 -1 42 C0.38885607 38.83391209 1.99027745 36.81936194 4.51171875 34.46875 C5.52395508 33.50001953 5.52395508 33.50001953 6.55664062 32.51171875 C7.98342166 31.16471191 9.41578493 29.8235947 10.85351562 28.48828125 C11.52447266 27.84246094 12.19542969 27.19664063 12.88671875 26.53125 C13.50764404 25.94923828 14.12856934 25.36722656 14.76831055 24.76757812 C16.20320315 23.08812938 16.20320315 23.08812938 15.91943359 21.02246094 C14.7795014 18.51497334 13.3733505 17.03382254 11.40234375 15.109375 C10.68369141 14.40039062 9.96503906 13.69140625 9.22460938 12.9609375 C8.46986328 12.23132812 7.71511719 11.50171875 6.9375 10.75 C6.17888672 10.00492188 5.42027344 9.25984375 4.63867188 8.4921875 C2.76567793 6.65453306 0.88604389 4.82424276 -1 3 C-0.67 2.01 -0.34 1.02 0 0 Z " fill="#DCDCDC" transform="translate(207,39)"/>
<path d="M0 0 C-0.57380172 3.66377743 -1.97269658 5.32767225 -4.59765625 7.890625 C-5.31630859 8.59960938 -6.03496094 9.30859375 -6.77539062 10.0390625 C-7.53013672 10.76867188 -8.28488281 11.49828125 -9.0625 12.25 C-9.82111328 12.99507812 -10.57972656 13.74015625 -11.36132812 14.5078125 C-13.23432207 16.34546694 -15.11395611 18.17575724 -17 20 C-15.5735422 23.2586636 -13.83295838 25.4024854 -11.3046875 27.890625 C-10.58925781 28.59960938 -9.87382812 29.30859375 -9.13671875 30.0390625 C-8.39035156 30.76867187 -7.64398438 31.49828125 -6.875 32.25 C-6.12089844 32.99507812 -5.36679687 33.74015625 -4.58984375 34.5078125 C-2.73099228 36.3431342 -0.86762995 38.1736191 1 40 C0.67 40.66 0.34 41.32 0 42 C-3.46629835 40.51346494 -5.69022036 38.54277649 -8.328125 35.8671875 C-9.12734375 35.06152344 -9.9265625 34.25585938 -10.75 33.42578125 C-11.9875 32.16314453 -11.9875 32.16314453 -13.25 30.875 C-14.09046875 30.02550781 -14.9309375 29.17601563 -15.796875 28.30078125 C-17.86915683 26.20495077 -19.93662393 24.10459287 -22 22 C-20.51770549 18.56394819 -18.5704826 16.31298409 -15.9375 13.671875 C-15.14085937 12.87265625 -14.34421875 12.0734375 -13.5234375 11.25 C-12.27433594 10.0125 -12.27433594 10.0125 -11 8.75 C-10.16726562 7.90953125 -9.33453125 7.0690625 -8.4765625 6.203125 C-7.67992187 5.4090625 -6.88328125 4.615 -6.0625 3.796875 C-5.33160156 3.06823242 -4.60070312 2.33958984 -3.84765625 1.58886719 C-2 0 -2 0 0 0 Z " fill="#E7E7E7" transform="translate(31,39)"/>
<path d="M0 0 C17.49 0 34.98 0 53 0 C52.67 0.99 52.34 1.98 52 3 C27.25 2.505 27.25 2.505 2 2 C1.67 2.66 1.34 3.32 1 4 C0.67 2.68 0.34 1.36 0 0 Z " fill="#AEAEAE" transform="translate(45,31)"/>
<path d="M0 0 C0.99 0 1.98 0 3 0 C2.62952882 2.74148672 2.31412056 4.58593199 0.625 6.8125 C-1 8 -1 8 -4 8 C-2.87548273 5.0280615 -1.77706209 2.66559313 0 0 Z " fill="#DCDCDC" transform="translate(117,59)"/>
<path d="M0 0 C1.32 0 2.64 0 4 0 C3.3125 2.4375 3.3125 2.4375 2 5 C-0.625 5.8125 -0.625 5.8125 -3 6 C-2.01 4.02 -1.02 2.04 0 0 Z " fill="#D3D3D3" transform="translate(137,28)"/>
<path d="M0 0 C0.33 0.99 0.66 1.98 1 3 C-0.28965176 4.37562854 -1.62689293 5.70766393 -3 7 C-3.66 7 -4.32 7 -5 7 C-3.75023244 3.34683329 -3.32901247 2.21934164 0 0 Z " fill="#EBEBEB" transform="translate(110,73)"/>
<path d="M0 0 C0.33 0.99 0.66 1.98 1 3 C-0.28965176 4.37562854 -1.62689293 5.70766393 -3 7 C-3.66 7 -4.32 7 -5 7 C-3.75023244 3.34683329 -3.32901247 2.21934164 0 0 Z " fill="#EBEBEB" transform="translate(123,53)"/>
<path d="M0 0 C0.33 0.99 0.66 1.98 1 3 C-0.28965176 4.37562854 -1.62689293 5.70766393 -3 7 C-3.66 7 -4.32 7 -5 7 C-3.75023244 3.34683329 -3.32901247 2.21934164 0 0 Z " fill="#EBEBEB" transform="translate(136,33)"/>
</svg>
